<?xml version="1.0" encoding="UTF-8"?>
<svg width="86px" height="59px" viewBox="0 0 86 59" version="1.1" xmlns="http://www.w3.org/2000/svg" xmlns:xlink="http://www.w3.org/1999/xlink">
    <!-- Generator: Sketch 60 (88103) - https://sketch.com -->
    <title>travel-vilain-logo</title>
    <desc>Created with Sketch.</desc>
    <defs>
        <polygon id="path-1" points="0 0.125138008 21.7447619 0.125138008 21.7447619 45.7161786 0 45.7161786"></polygon>
    </defs>
    <g id="Page-1" stroke="none" stroke-width="1" fill="none" fill-rule="evenodd">
        <g id="vilain/home-copy-2" transform="translate(-208.000000, -212.000000)">
            <g id="travel-vilain-logo" transform="translate(208.000000, 212.000000)">
                <g id="Group-28">
                    <g id="Group-26">
                        <path d="M33.9591837,1.56302521 L32.0887064,1.56302521 C31.9268381,1.56302521 31.8477026,1.54042307 31.7901494,1.50738916 L31.7667684,1.52999131 C31.7901494,1.58562735 31.8009406,1.70733121 31.8009406,1.86206897 L31.8009406,7.76470588 L30.0221886,7.76470588 L30.0221886,1.86206897 C30.0221886,1.70733121 30.0455696,1.58562735 30.067152,1.52999131 L30.0455696,1.50738916 C29.9880165,1.54042307 29.9070823,1.56302521 29.7470126,1.56302521 L27.8639456,1.56302521 L27.8639456,0 L33.9591837,0 L33.9591837,1.56302521 Z" id="Fill-1" fill="#FFFFFF"></path>
                        <path d="M43.8658352,4.92333549 L44.952381,4.92333549 C45.2037037,4.92333549 45.3605442,4.93357466 45.4928193,4.97623788 L45.5060469,4.96599871 C45.3983371,4.85848739 45.2887377,4.68271493 45.181028,4.45574661 L44.6972789,3.41988365 C44.5309902,3.0495669 44.4459562,2.81065288 44.4327286,2.63658694 L44.3835979,2.63658694 C44.3741497,2.81065288 44.2985639,3.0495669 44.1322751,3.41988365 L43.6485261,4.45574661 C43.5275888,4.68271493 43.4198791,4.85848739 43.3102797,4.96599871 L43.3235072,4.97623788 C43.4557823,4.93357466 43.6126228,4.92333549 43.8658352,4.92333549 L43.8658352,4.92333549 Z M44.2154195,0 L44.6027967,0 L48.7619048,7.76470588 L46.7135299,7.76470588 L45.9274376,6.17422107 L42.9002268,6.17422107 L42.1046863,7.76470588 L40.0544218,7.76470588 L44.2154195,0 Z" id="Fill-3" fill="#FFFFFF"></path>
                        <path d="M50.2365497,7.76470588 L49.8995048,7.76470588 L46.1496599,0 L48.2089865,0 L49.7301,3.64658949 C49.8995048,4.06476846 50.0000888,4.32806633 50.0459693,4.68945557 L50.0900851,4.68945557 C50.1465534,4.32806633 50.2365497,4.06476846 50.4183068,3.64658949 L51.9253033,0 L53.9863946,0 L50.2365497,7.76470588 Z" id="Fill-5" fill="#FFFFFF"></path>
                        <path d="M60.7570729,5.90305377 C60.7570729,6.05775688 60.7382933,6.17943349 60.7085589,6.23331885 L60.7273385,6.25765417 C60.7789825,6.22462766 60.8478411,6.20203058 61.0074678,6.20203058 L63.5646259,6.20203058 L63.5646259,7.76470588 L59.2108844,7.76470588 L59.2108844,0 L60.7570729,0 L60.7570729,5.90305377 Z" id="Fill-7" fill="#FFFFFF"></path>
                        <path d="M36.7024622,3.20632998 C36.5458743,3.20632998 36.4724737,3.21849492 36.410491,3.26194112 L36.3909175,3.2393491 C36.4202778,3.18373795 36.4414824,3.04992364 36.4414824,2.89525515 L36.4414824,1.77608089 C36.4414824,1.61967455 36.4202778,1.49802517 36.3909175,1.44241403 L36.410491,1.42155985 C36.4724737,1.46500606 36.5458743,1.47717099 36.7024622,1.47717099 L37.5865313,1.47717099 C38.1166466,1.47717099 38.4314535,1.80736216 38.4314535,2.32871663 C38.4314535,2.88309021 38.1166466,3.20632998 37.5865313,3.20632998 L36.7024622,3.20632998 Z M39.6743699,6.04771183 L38.9191595,5.03628416 C38.6386062,4.6591711 38.4086178,4.48191058 38.1068599,4.39328032 L38.1068599,4.37068829 C38.1688426,4.38111538 38.2112518,4.38111538 38.3254305,4.38111538 C39.2731134,4.38111538 40.0544218,3.43920164 40.0544218,2.21923219 C40.0544218,0.822002212 39.1475169,0 37.5979492,0 L34.829932,0 L34.829932,7.76470588 L36.4414824,7.76470588 L36.4414824,5.06930328 C36.4414824,4.83643162 36.410491,4.63657907 36.3485083,4.48191058 L36.3697129,4.45931855 C36.410491,4.48191058 36.4643181,4.50276476 36.5344564,4.52709463 C36.5980703,4.54621096 36.6698397,4.5583759 36.7432403,4.5583759 L38.9338397,7.68128917 L39.6743699,6.04771183 Z" id="Fill-9" fill="#FFFFFF"></path>
                        <path d="M55.7752619,6.23331885 C55.6163207,6.23331885 55.5477578,6.25765417 55.4963357,6.28894244 L55.4776367,6.26808359 C55.5072434,6.21246 55.5275006,6.07861573 55.5275006,5.93434204 L55.5275006,4.72626714 C55.5275006,4.58199344 55.5072434,4.44814917 55.4776367,4.39252558 L55.4963357,4.37166673 C55.5477578,4.402955 55.6163207,4.42555209 55.7752619,4.42555209 L58.0331614,4.42555209 L58.0331614,2.91676214 L55.7752619,2.91676214 C55.6163207,2.91676214 55.5477578,2.93935922 55.4963357,2.97238573 L55.4776367,2.94978865 C55.5072434,2.89590329 55.5275006,2.76205902 55.5275006,2.60561767 L55.5275006,1.83036384 C55.5275006,1.68609015 55.5072434,1.55398412 55.4776367,1.49662229 L55.4963357,1.47576344 C55.5477578,1.50705171 55.6163207,1.53138703 55.7752619,1.53138703 L58.3011799,1.53138703 L58.3011799,0 L55.1644291,0 L53.9863946,2.79334729 L53.9863946,7.76470588 L58.3401361,7.76470588 L58.3401361,6.23331885 L55.7752619,6.23331885 Z" id="Fill-11" fill="#FFFFFF"></path>
                        <path d="M25.2517007,43.1372549 L25.2517007,17.7256305 L28.7346939,17.7256305 L28.7346939,40.7299318 L25.2517007,43.1372549 Z M25.2517007,14.6990775 L28.7346939,14.6990775 L28.7346939,11.2156863 L25.2517007,11.2156863 L25.2517007,14.6990775 Z" id="Fill-13" fill="#FFFFFF"></path>
                        <path d="M56.5986395,38.1377914 L56.5986395,17.7361908 L60.0816327,17.7361908 L60.0816327,40.5490196 L56.5986395,38.1377914 Z M56.5986395,14.7047282 L60.0816327,14.7047282 L60.0816327,11.2156863 L56.5986395,11.2156863 L56.5986395,14.7047282 Z" id="Fill-15" fill="#FFFFFF"></path>
                        <polygon id="Fill-17" fill="#FFFFFF" points="32.2176871 37.9607843 32.2176871 11.2156863 35.7006803 11.2156863 35.7006803 36.7956135"></polygon>
                        <path d="M44.0939099,27.9895148 L48.236597,27.9895148 L46.1505262,16.3282944 L44.0939099,27.9895148 Z M39.176977,36.4552983 L44.4629573,11.2156863 L47.8086406,11.2156863 L53.1550808,36.4552983 L49.6322279,35.9994926 L48.6974731,30.5782913 L43.6330338,30.5782913 L42.5515519,36.1366134 L39.176977,36.4552983 Z" id="Fill-19" fill="#FFFFFF"></path>
                        <polygon id="Fill-21" fill="#FFFFFF" points="64.4353741 44.4053456 64.4353741 11.2156863 70.0996329 11.2156863 75.3768601 48.4430822 81.6948883 11.2156863 85.3333333 11.2156863 76.616407 58.6666667 73.638705 58.6666667 68.0215176 21.0256925 68.0215176 47.9706759"></polygon>
                        <g id="Group-25" transform="translate(0.000000, 11.215686)">
                            <mask id="mask-2" fill="white">
                                <use xlink:href="#path-1"></use>
                            </mask>
                            <g id="Clip-24"></g>
                            <polygon id="Fill-23" fill="#FFFFFF" mask="url(#mask-2)" points="-0.000362811792 0.125138008 3.15609977 0.125138008 17.9588209 35.5294694 17.9588209 0.125138008 21.7447619 0.125138008 21.7447619 45.7161786 18.6463492 45.7161786 3.73115646 9.91854485"></polygon>
                        </g>
                    </g>
                </g>
            </g>
        </g>
    </g>
</svg>